<?xml version="1.0" standalone="no"?><!DOCTYPE svg PUBLIC "-//W3C//DTD SVG 1.1//EN" "http://www.w3.org/Graphics/SVG/1.1/DTD/svg11.dtd"><svg t="1630471818204" class="icon" viewBox="0 0 1195 1024" version="1.1" xmlns="http://www.w3.org/2000/svg" p-id="6938" data-spm-anchor-id="a313x.7781069.0.i17" xmlns:xlink="http://www.w3.org/1999/xlink" width="233.3984375" height="200"><defs><style type="text/css"></style></defs><path d="M3.648 35.84c4.864 0 4.864-7.68 0-7.68s-4.864 7.68 0 7.68z" fill="#006837" p-id="6939"></path><path d="M230.72 237.312c246.272 0 445.696 87.552 445.696 195.84 0 67.584-179.712 122.368-401.664 122.368-24.32 0-44.032-142.336-44.032-318.208z" fill="#b92907" p-id="6940" data-spm-anchor-id="a313x.7781069.0.i11" class=""></path><path d="M683.84 426.24c-71.68 255.488-290.048 417.28-488.192 361.728 22.784-80.896 11.52-154.624-25.088-164.864 231.936 65.024 459.52-23.552 508.416-198.4" fill="#b92907" p-id="6941" data-spm-anchor-id="a313x.7781069.0.i15" class=""></path><path d="M1124.928 237.312c-245.248 0-443.648 87.552-443.648 195.84 0 67.584 178.688 122.368 399.616 122.368 24.576 0 44.032-142.336 44.032-318.208z" fill="#b92907" p-id="6942" data-spm-anchor-id="a313x.7781069.0.i13" class=""></path><path d="M683.072 442.112c72.704 255.232 290.816 416.256 487.936 360.192-23.04-80.64-12.288-154.368 24.064-164.864-230.656 65.792-457.472-22.272-507.136-196.864" fill="#b92907" p-id="6943" data-spm-anchor-id="a313x.7781069.0.i16" class=""></path><path d="M731.712 450.56l-51.712 29.696-51.456-29.696v-59.648l51.456-29.696 51.712 29.696z" fill="" p-id="6944"></path><path d="M678.976 442.88c17.664 0 31.744-13.056 31.744-29.44 0-8.192-5.376-14.592-12.288-14.592-9.472 0-17.152 6.656-17.152 14.592 0-8.192-6.656-14.592-14.592-14.592-8.192 0-14.592 6.656-14.592 14.592 0 16.128 13.056 29.44 29.44 29.44" fill="#8A001B" p-id="6945"></path></svg>